<svg width="611" height="541" viewBox="0 0 611 541" fill="none" xmlns="http://www.w3.org/2000/svg">
<path d="M495.057 391.659H353.982C347.512 391.659 342.167 386.452 342.167 379.838V212.083C342.167 205.61 347.371 200.262 353.982 200.262H495.057C501.527 200.262 506.872 205.469 506.872 212.083V379.838C506.872 386.312 501.527 391.659 495.057 391.659Z" fill="#F5F5F5"/>
<path d="M442.171 279.635C435.842 262.044 419.104 251.207 401.241 251.77C396.881 251.911 392.661 252.755 388.301 254.163C375.361 258.807 366.078 269.08 362.28 281.184C359.608 289.628 359.608 298.916 362.843 307.923C363.124 308.767 363.546 309.752 363.827 310.597C365.515 314.537 367.766 318.056 370.297 321.011C381.268 333.959 399.553 339.447 416.572 333.396C438.655 325.655 450.048 301.59 442.171 279.635ZM413.197 323.544C400.538 328.048 386.754 323.967 378.596 314.256C376.627 312.004 374.939 309.33 373.673 306.375C373.392 305.671 373.11 305.108 372.829 304.405C370.438 297.649 370.438 290.753 372.407 284.42C375.22 275.273 382.253 267.532 391.958 264.155C395.193 263.029 398.428 262.466 401.663 262.325C415.025 261.903 427.543 270.066 432.325 283.295C438.092 299.62 429.653 317.634 413.197 323.544Z" fill="#4AAFFF"/>
<path d="M372.407 284.42L362.421 281.324C366.218 269.221 375.502 258.807 388.442 254.303C392.661 252.755 397.021 252.052 401.382 251.911L401.663 262.466C398.428 262.607 395.193 263.17 391.958 264.295C382.253 267.532 375.361 275.273 372.407 284.42Z" fill="#1A598C"/>
<path d="M373.673 306.375L363.968 310.597C363.546 309.752 363.265 308.908 362.984 307.923C359.749 298.916 359.749 289.628 362.421 281.184L372.407 284.28C370.438 290.613 370.438 297.649 372.829 304.264C373.111 305.108 373.392 305.812 373.673 306.375Z" fill="#2273B5"/>
<path d="M370.579 321.152C367.906 318.056 365.796 314.537 364.109 310.738L373.814 306.516C375.08 309.471 376.767 312.004 378.737 314.397L370.579 321.152Z" fill="#3788CC"/>
<path d="M478.601 305.39C471.568 302.012 463.551 303.842 458.488 309.19C457.222 310.456 456.237 312.004 455.393 313.693C453.002 318.759 453.283 324.53 455.675 329.174C457.362 332.411 460.035 335.085 463.692 336.773C464.114 336.914 464.395 337.055 464.817 337.196C466.505 337.899 468.052 338.181 469.74 338.321C476.773 338.884 483.665 335.085 486.9 328.47C490.979 319.885 487.321 309.471 478.601 305.39ZM482.961 326.641C480.57 331.707 475.366 334.522 470.162 334.099C468.896 333.959 467.63 333.677 466.505 333.255C466.224 333.114 465.942 332.974 465.661 332.974C462.989 331.707 461.019 329.596 459.753 327.203C457.925 323.685 457.644 319.463 459.472 315.523C460.035 314.256 460.879 313.13 461.723 312.145C465.52 308.204 471.568 306.797 476.773 309.33C483.243 312.426 486.056 320.167 482.961 326.641Z" fill="#4AAFFF"/>
<path d="M459.613 327.203L455.815 329.174C453.424 324.529 453.002 318.759 455.534 313.693C456.378 312.004 457.362 310.456 458.628 309.19L461.863 312.145C461.019 313.13 460.175 314.256 459.613 315.523C457.644 319.322 457.784 323.685 459.613 327.203Z" fill="#1A598C"/>
<path d="M466.364 333.255L464.817 337.336C464.395 337.196 464.114 337.055 463.692 336.914C460.176 335.225 457.363 332.551 455.675 329.314L459.472 327.344C460.738 329.737 462.848 331.848 465.38 333.114C465.942 332.974 466.224 333.114 466.364 333.255Z" fill="#2273B5"/>
<path d="M486.898 275.554C490.274 268.518 488.446 260.496 483.101 255.429C481.835 254.163 480.288 253.178 478.6 252.333C473.536 249.941 467.77 250.222 463.128 252.615C459.893 254.303 457.221 256.977 455.533 260.636C455.392 261.059 455.251 261.34 455.111 261.762C454.407 263.451 454.126 264.999 453.985 266.688C453.423 273.725 457.22 280.621 463.831 283.858C472.411 287.939 482.819 284.28 486.898 275.554ZM465.66 279.917C460.596 277.524 457.783 272.317 458.205 267.11C458.346 265.844 458.627 264.577 459.049 263.31C459.19 263.029 459.33 262.747 459.33 262.466C460.596 259.792 462.706 257.822 465.097 256.555C468.613 254.726 472.833 254.444 476.771 256.274C478.037 256.837 479.162 257.681 480.147 258.525C484.085 262.325 485.492 268.377 482.96 273.584C479.866 280.198 472.13 283.013 465.66 279.917Z" fill="#4AAFFF"/>
<path d="M465.097 256.555L463.128 252.755C467.77 250.363 473.537 250.081 478.6 252.474C480.288 253.318 481.835 254.303 483.101 255.57L480.147 258.807C479.163 257.963 478.038 257.118 476.772 256.555C472.974 254.444 468.614 254.726 465.097 256.555Z" fill="#4AAFFF"/>
<path d="M459.049 263.31L454.97 261.762C455.111 261.34 455.252 261.059 455.392 260.636C457.08 257.118 459.753 254.303 462.988 252.615L464.957 256.414C462.566 257.681 460.456 259.792 459.19 262.325C459.331 262.747 459.19 263.029 459.049 263.31Z" fill="#2273B5"/>
<path d="M453.845 266.688C453.986 264.999 454.408 263.31 454.97 261.762L459.049 263.31C458.627 264.577 458.346 265.844 458.205 267.11L453.845 266.688Z" fill="#3788CC"/>
<path d="M465.802 350.002H433.311V349.299H465.239V337.055H465.802V350.002Z" fill="#E2F3FE"/>
<path d="M404.617 350.002H362.421V349.299H404.055V329.174H404.617V350.002Z" fill="#E2F3FE"/>
<path d="M391.537 342.543H362.421V346.484H391.537V342.543Z" fill="#4AAFFF"/>
<path d="M450.47 342.543H433.311V346.484H450.47V342.543Z" fill="#4AAFFF"/>
<path d="M369.735 216.728H355.811V219.683H369.735V216.728Z" fill="#4AAFFF"/>
<path d="M435.42 227.986H413.9V230.942H435.42V227.986Z" fill="#4AAFFF"/>
<path d="M399.131 227.986H385.91V230.942H399.131V227.986Z" fill="#4AAFFF"/>
<path d="M381.972 227.986H355.811V230.942H381.972V227.986Z" fill="#4AAFFF"/>
<path d="M394.63 216.728H373.954V219.683H394.63V216.728Z" fill="#4AAFFF"/>
<path d="M408.837 227.986H403.21V230.942H408.837V227.986Z" fill="#4AAFFF"/>
<path d="M435.561 216.868H420.089V219.824H435.561V216.868Z" fill="#4AAFFF"/>
<path d="M453.987 227.986H440.906V230.942H453.987V227.986Z" fill="#4AAFFF"/>
<path d="M416.01 216.868H399.694V219.824H416.01V216.868Z" fill="#4AAFFF"/>
<path d="M164.24 195.055C173.664 215.742 179.009 235.445 172.117 244.171C171.695 244.734 171.273 245.156 170.71 245.578C165.365 250.363 154.676 250.363 136.813 243.326C89.272 224.468 87.0215 192.099 77.3164 160.434C67.8926 129.191 34.6985 134.398 33.8545 134.539C111.073 107.659 148.065 159.871 164.24 195.055Z" fill="url(#paint0_linear)"/>
<path d="M171.976 244.171C171.554 244.734 171.132 245.156 170.57 245.578C161.568 240.23 144.549 228.831 136.391 216.024C132.593 209.972 129.358 203.217 125.982 196.04C119.653 182.389 112.902 168.315 101.368 157.619L102.634 156.212C114.449 167.33 121.2 181.544 127.67 195.336C131.046 202.513 134.14 209.269 137.938 215.179C146.096 227.423 163.256 238.823 171.976 244.171Z" fill="url(#paint1_linear)"/>
<path d="M155.942 203.499C155.38 204.906 154.958 205.61 154.958 205.75C154.817 205.047 154.676 204.202 154.536 203.499C148.206 170.989 139.767 167.612 114.309 139.043C88.2879 109.911 103.197 82.8898 103.197 82.8898C190.402 108.081 161.85 189.003 155.942 203.499Z" fill="url(#paint2_linear)"/>
<path d="M155.942 203.499C155.38 204.906 154.958 205.61 154.958 205.75C154.817 205.047 154.676 204.202 154.536 203.499C157.349 175.352 140.47 142.42 135.125 136.509C129.64 130.317 126.264 121.873 124.998 118.777C124.717 118.214 124.576 117.792 124.576 117.651L125.842 116.947C125.983 117.088 126.124 117.51 126.405 118.214C127.671 121.31 131.047 129.613 136.391 135.524C142.861 142.983 158.474 176.196 155.942 203.499Z" fill="url(#paint3_linear)"/>
<path d="M542.035 191.818H163.397C151.301 191.818 141.595 182.107 141.595 170.004V56.7134C141.595 44.6103 151.301 34.8997 163.397 34.8997H542.035C554.132 34.8997 563.837 44.6103 563.837 56.7134V170.004C563.837 182.107 554.132 191.818 542.035 191.818Z" fill="#F5F5F5"/>
<path d="M527.829 80.0751H476.21V85.2823H527.829V80.0751Z" fill="#B8D6FF"/>
<path d="M535.565 96.1188H476.21V101.326H535.565V96.1188Z" fill="#B8D6FF"/>
<path d="M506.872 112.022H476.21V117.229H506.872V112.022Z" fill="#B8D6FF"/>
<path d="M523.469 127.925H476.21V133.132H523.469V127.925Z" fill="#B8D6FF"/>
<path d="M322.054 375.194H163.819V380.542H322.054V375.194Z" fill="white"/>
<path d="M281.405 350.424H163.819V355.772H281.405V350.424Z" fill="url(#paint4_linear)"/>
<path d="M290.829 362.809H163.819V368.157H290.829V362.809Z" fill="url(#paint5_linear)"/>
<path d="M246.242 375.194H163.819V380.542H246.242V375.194Z" fill="url(#paint6_linear)"/>
<path d="M242.725 177.463H196.731V183.092H242.725V177.463Z" fill="#D6D6D6"/>
<path d="M253.978 167.33H185.62V172.959H253.978V167.33Z" fill="#D6D6D6"/>
<path d="M231.754 89.5044C231.754 96.1189 226.409 101.326 219.939 101.326C213.329 101.326 208.124 95.9781 208.124 89.5044C208.124 82.8899 213.469 77.6827 219.939 77.6827C226.409 77.6827 231.754 82.8899 231.754 89.5044Z" fill="url(#paint7_linear)"/>
<path d="M241.318 128.206V150.864C234.708 153.82 227.534 155.508 219.799 155.508C212.063 155.508 204.889 153.82 198.279 150.864V128.206C198.279 116.244 207.843 106.674 219.799 106.674C231.613 106.674 241.318 116.385 241.318 128.206Z" fill="url(#paint8_linear)"/>
<path d="M404.617 71.9126H294.064V79.09H404.617V71.9126Z" fill="white"/>
<path d="M459.613 71.9126H416.573V79.09H459.613V71.9126Z" fill="white"/>
<path d="M345.965 55.7283H294.064V62.9057H345.965V55.7283Z" fill="white"/>
<path d="M219.799 156.916C212.063 156.916 204.608 155.368 197.716 152.131C178.588 143.405 166.351 124.265 166.351 103.437C166.351 73.8828 190.402 49.9581 219.799 49.9581C249.336 49.9581 273.247 74.0236 273.247 103.437C273.247 124.406 260.87 143.546 241.882 152.131C234.849 155.227 227.394 156.916 219.799 156.916ZM219.799 52.6321C191.809 52.6321 169.164 75.4309 169.164 103.296C169.164 123.14 180.838 141.294 198.842 149.457C205.452 152.412 212.485 153.96 219.799 153.96C227.113 153.96 234.146 152.412 240.756 149.457C258.76 141.294 270.434 123.14 270.434 103.296C270.434 75.4309 247.648 52.6321 219.799 52.6321Z" fill="url(#paint9_linear)"/>
<path d="M437.53 409.533H411.65C407.289 409.533 403.773 406.014 403.773 401.652V375.757C403.773 371.394 407.289 367.875 411.65 367.875H437.53C441.89 367.875 445.406 371.394 445.406 375.757V401.652C445.406 406.014 441.89 409.533 437.53 409.533Z" fill="white"/>
<path d="M426.559 380.542H422.62V397.148H426.559V380.542Z" fill="#C5CCD1"/>
<path d="M432.765 390.775V386.835H416.168V390.775H432.765Z" fill="#C5CCD1"/>
<path d="M304.753 92.6005H301.94V161.138H304.753V92.6005Z" fill="#C9E0FF"/>
<path d="M317.693 92.6005H314.88V161.138H317.693V92.6005Z" fill="#C9E0FF"/>
<path d="M330.633 92.6005H327.82V161.138H330.633V92.6005Z" fill="#C9E0FF"/>
<path d="M343.714 92.6005H340.901V161.138H343.714V92.6005Z" fill="#C9E0FF"/>
<path d="M356.655 92.6005H353.842V161.138H356.655V92.6005Z" fill="#C9E0FF"/>
<path d="M369.594 92.6005H366.781V161.138H369.594V92.6005Z" fill="#C9E0FF"/>
<path d="M382.534 92.6005H379.721V161.138H382.534V92.6005Z" fill="#C9E0FF"/>
<path d="M395.614 92.6005H392.801V161.138H395.614V92.6005Z" fill="#C9E0FF"/>
<path d="M408.555 92.6005H405.742V161.138H408.555V92.6005Z" fill="#C9E0FF"/>
<path d="M421.495 92.6005H418.682V161.138H421.495V92.6005Z" fill="#C9E0FF"/>
<path d="M434.435 92.6005H431.622V161.138H434.435V92.6005Z" fill="#C9E0FF"/>
<path d="M447.516 92.6005H444.703V161.138H447.516V92.6005Z" fill="#C9E0FF"/>
<path d="M304.753 113.148H301.94V161.138H304.753V113.148Z" fill="#FF6559"/>
<path d="M317.693 129.613H314.88V160.997H317.693V129.613Z" fill="#FF6559"/>
<path d="M330.633 102.452H327.82V161.138H330.633V102.452Z" fill="#FF6559"/>
<path d="M343.714 144.109H340.901V161.138H343.714V144.109Z" fill="#FF6559"/>
<path d="M356.655 126.799H353.842V160.997H356.655V126.799Z" fill="#FF6559"/>
<path d="M369.594 113.992H366.781V161.138H369.594V113.992Z" fill="#FF6559"/>
<path d="M382.534 130.739H379.721V161.138H382.534V130.739Z" fill="#FF6559"/>
<path d="M395.614 109.629H392.801V161.138H395.614V109.629Z" fill="#FF6559"/>
<path d="M408.555 132.85H405.742V161.138H408.555V132.85Z" fill="#FF6559"/>
<path d="M421.495 115.962H418.682V161.138H421.495V115.962Z" fill="#FF6559"/>
<path d="M434.435 138.48H431.622V161.138H434.435V138.48Z" fill="#FF6559"/>
<path d="M447.516 115.962H444.703V161.138H447.516V115.962Z" fill="#FF6559"/>
<path d="M316.006 443.449H83.0836C74.2224 443.449 66.9085 436.272 66.9085 427.265V216.446C66.9085 207.58 74.0818 200.262 83.0836 200.262H316.146C325.007 200.262 332.321 207.439 332.321 216.446V427.265C332.181 436.131 325.007 443.449 316.006 443.449Z" fill="#F5F5F5"/>
<path d="M165.226 274.006C170.57 258.948 165.788 242.763 154.255 232.912C151.582 230.519 148.347 228.549 144.971 227.142C144.268 226.86 143.424 226.438 142.58 226.157C134.704 223.342 126.405 223.342 118.951 225.734C108.12 229.112 98.9779 237.275 94.8989 248.815C93.4924 252.615 92.7891 256.414 92.7891 260.214C92.3672 275.976 101.932 290.894 117.544 296.524C136.954 303.56 158.334 293.427 165.226 274.006ZM120.638 287.798C108.964 283.576 101.791 272.458 102.072 260.636C102.213 257.822 102.635 254.866 103.76 252.052C106.854 243.467 113.746 237.275 121.764 234.741C127.39 233.053 133.579 232.912 139.486 235.164C140.049 235.445 140.611 235.586 141.174 235.867C143.706 236.993 146.097 238.401 148.207 240.23C156.786 247.548 160.443 259.651 156.364 271.051C151.301 285.406 135.266 293.005 120.638 287.798Z" fill="#78C3FF"/>
<path d="M121.764 234.741L118.951 225.875C108.121 229.253 98.9781 237.415 94.8991 248.955C93.4926 252.755 92.7893 256.555 92.7893 260.355L102.072 260.636C102.213 257.822 102.635 254.866 103.76 252.052C106.855 243.326 113.606 237.134 121.764 234.741Z" fill="#1173C2"/>
<path d="M141.315 235.727L145.113 227.142C144.409 226.86 143.565 226.438 142.722 226.157C134.845 223.342 126.546 223.342 119.092 225.734L121.905 234.601C127.531 232.912 133.72 232.771 139.627 235.023C140.049 235.304 140.752 235.445 141.315 235.727Z" fill="#1487E3"/>
<path d="M154.255 232.912C151.582 230.519 148.347 228.549 144.971 227.142L141.174 235.727C143.706 236.852 146.097 238.26 148.206 240.089L154.255 232.912Z" fill="#4AAFFF"/>
<path d="M284.077 349.721H271.137V394.052H284.077V349.721Z" fill="#4AAFFF"/>
<path d="M264.808 362.246H251.868V394.193H264.808V362.246Z" fill="#4AAFFF"/>
<path d="M302.644 329.174H289.704V394.193H302.644V329.174Z" fill="#4AAFFF"/>
<path d="M300.674 296.805L300.393 295.398L266.214 300.886L255.103 324.529L218.251 327.063L206.296 344.654L178.165 343.951V345.358L207.14 346.202L219.095 328.47L256.087 325.937L267.199 302.293L300.674 296.805Z" fill="#4AAFFF"/>
<path d="M258.9 237.556H295.751C298.143 237.556 299.971 235.727 299.971 233.334C299.971 230.942 298.143 229.112 295.751 229.112H258.9C256.509 229.112 254.681 230.942 254.681 233.334C254.681 235.727 256.509 237.556 258.9 237.556Z" fill="#1487E3"/>
<path d="M258.9 252.333H295.751C298.143 252.333 299.971 250.504 299.971 248.111C299.971 245.719 298.143 243.889 295.751 243.889H258.9C256.509 243.889 254.681 245.719 254.681 248.111C254.681 250.363 256.509 252.333 258.9 252.333Z" fill="#4AAFFF"/>
<path d="M258.9 266.969H295.751C298.143 266.969 299.971 265.14 299.971 262.747C299.971 260.355 298.143 258.525 295.751 258.525H258.9C256.509 258.525 254.681 260.355 254.681 262.747C254.681 265.14 256.509 266.969 258.9 266.969Z" fill="#4AAFFF"/>
<path d="M192.23 244.874H171.132V244.03H191.808L202.92 233.053H216.563V233.756H203.201L192.23 244.874Z" fill="#4AAFFF"/>
<path d="M212.063 281.747H185.058L176.197 272.88L176.759 272.317L185.339 280.902H212.063V281.747Z" fill="#4AAFFF"/>
<path d="M233.02 238.401H204.89V241.919H233.02V238.401Z" fill="#1487E3"/>
<path d="M218.955 273.584H196.31V277.102H218.955V273.584Z" fill="#1487E3"/>
<path d="M7.55279 290.05C14.5855 286.672 21.6181 309.19 21.6181 309.19C33.7143 325.092 50.4521 303.982 48.7642 327.766C45.9511 369.424 96.5863 340.855 73.2379 384.341C49.8894 427.828 93.9139 408.97 79.4266 443.872C64.7987 478.914 83.7869 520.712 61.845 503.543C61.845 503.543 42.5755 461.182 22.7434 448.094C2.91124 435.005 34.6989 419.525 28.3695 401.652C19.3677 375.897 -2.43359 376.882 13.3196 349.158C28.9321 321.433 -16.4989 301.59 7.55279 290.05Z" fill="url(#paint10_linear)"/>
<path d="M68.7373 487.64C59.3136 481.025 48.202 434.443 47.4987 406.718C47.2174 392.504 42.9978 386.593 39.2002 381.386C35.6838 376.46 32.5894 372.098 34.4179 362.246C37.7936 343.388 28.9325 335.225 28.7918 335.085L29.7764 333.959C30.1983 334.24 39.4815 342.684 35.9651 362.528C34.2773 371.816 37.0904 375.616 40.466 380.542C44.123 385.608 48.6239 392.082 49.0459 406.718C49.7492 436.413 61.1421 480.462 69.5813 486.373L68.7373 487.64Z" fill="white"/>
<path d="M72.2535 491.017C70.9876 491.017 69.7217 490.877 68.1745 490.595C64.5175 489.892 62.1264 487.921 61.0012 484.825C58.4694 477.507 64.3769 465.545 69.1591 459.915C69.2997 459.775 77.317 449.923 76.4731 436.272C76.3324 434.02 76.0511 431.909 75.9105 429.939C75.3478 424.591 74.9259 420.651 77.1763 417.977C79.2861 415.725 83.2244 414.74 90.3977 414.599C103.057 414.599 107.979 409.251 112.058 405.17C113.746 403.34 115.434 401.652 117.263 400.666C123.592 397.289 130.203 396.726 133.156 399.4C134.563 400.666 135.688 403.2 133.438 407.985C131.328 412.347 128.655 415.021 126.546 417.273C123.592 420.228 121.763 422.199 122.748 426.139C123.029 427.124 123.311 427.969 123.592 428.954C125.561 435.568 127.812 443.168 116.419 448.234C114.027 449.36 111.777 450.205 109.808 450.908C101.791 454.004 97.0084 455.975 91.6636 467.374C90.679 469.626 89.6945 471.737 88.8506 473.707C84.3496 483.699 81.1146 491.017 72.2535 491.017ZM118.106 402.215C116.419 403.2 114.871 404.748 113.184 406.437C108.964 410.799 103.76 416.288 90.3977 416.429C83.787 416.429 80.1301 417.273 78.4422 419.243C76.6137 421.354 77.0357 424.873 77.5983 429.939C77.8796 431.769 78.0202 434.02 78.1609 436.272C79.0048 450.627 70.8469 460.619 70.5656 460.9C65.7834 466.53 60.4386 477.929 62.689 484.262C63.533 486.795 65.5021 488.344 68.5965 489.047C79.2861 491.158 82.2399 484.544 87.1627 473.426C88.0066 471.315 88.9912 469.204 90.1164 467.093C95.7426 455.13 101.087 453.019 109.105 449.783C111.074 449.079 113.184 448.234 115.575 447.109C125.702 442.605 123.873 436.272 121.904 429.658C121.623 428.672 121.341 427.828 121.06 426.843C119.794 422.058 122.185 419.665 125.28 416.429C127.53 414.177 129.921 411.644 131.89 407.562C132.875 405.451 133.719 402.496 132.031 400.807C129.781 398.555 123.733 399.118 118.106 402.215Z" fill="url(#paint11_linear)"/>
<path d="M68.4557 500.165L66.9085 500.025C67.0491 498.617 69.0183 463.856 82.9429 453.723C98.2742 442.605 103.056 430.643 105.307 422.48C107.979 413.051 121.763 410.518 122.326 410.377L122.607 411.925C122.467 411.925 109.245 414.458 106.854 422.902C104.463 431.206 99.54 443.45 83.9275 454.99C70.4248 464.7 68.4557 499.743 68.4557 500.165Z" fill="url(#paint12_linear)"/>
<path d="M100.384 325.093C90.5386 321.715 92.5077 340.855 88.2881 354.928C84.0685 369.001 41.7319 361.12 59.4542 396.444C77.1765 431.769 36.9497 408.266 49.0459 439.228C61.142 470.048 50.0304 503.121 63.1112 494.677C76.1919 486.233 70.4252 447.39 84.0685 442.746C97.7119 438.102 99.8217 432.754 86.4596 420.228C72.9569 407.703 121.764 395.178 109.667 369.846C97.7119 344.514 111.777 329.033 100.384 325.093Z" fill="url(#paint13_linear)"/>
<path d="M69.2995 493.269C68.0336 487.921 57.4846 441.479 67.3303 435.85C76.0508 430.924 75.9102 411.644 74.5036 393.348C73.2377 377.164 93.9138 369.705 94.8983 369.424L95.461 370.972C95.3203 371.112 75.0662 378.431 76.1915 393.348C77.598 412.066 77.7386 431.909 68.1742 437.257C60.5789 441.479 67.6116 478.914 70.8466 492.988L69.2995 493.269Z" fill="white"/>
<path d="M91.8037 476.663L77.5977 530.423H46.0914L31.8854 476.663H91.8037Z" fill="url(#paint14_linear)"/>
<path d="M91.8037 476.663C91.8037 476.663 60.7193 482.573 60.7193 530.282H46.0914L31.8854 476.663H91.8037Z" fill="url(#paint15_linear)"/>
<path d="M177.321 13.6489V18.1524H132.875V62.6243H128.374V13.6489H177.321Z" fill="#B8D6FF"/>
<path d="M578.746 0.419922H542.598V2.95313H578.746V0.419922Z" fill="#B8D6FF"/>
<path d="M578.746 5.20483H542.598V15.9006H578.746V5.20483Z" fill="#B8D6FF"/>
<path d="M539.081 9.14539H517.843V10.6935H539.081V9.14539Z" fill="#B8D6FF"/>
<path d="M539.081 11.538H517.843V15.9007H539.081V11.538Z" fill="#B8D6FF"/>
<path d="M579.449 0.419922H577.902V30.2555H579.449V0.419922Z" fill="#B8D6FF"/>
<path d="M180.275 407H135.687V409.674H180.275V407Z" fill="#E2D2CA"/>
<path d="M141.643 536.874H145.582L145.582 416.547H141.643L141.643 536.874Z" fill="#706865"/>
<path d="M204.185 406.155H173.241V409.955H204.185V406.155Z" fill="#CCBDB7"/>
<path d="M194.481 373.927H182.807V409.533H194.481V373.927Z" fill="#998E89"/>
<path d="M291.25 409.674H119.653V416.569H291.25V409.674Z" fill="#B59074"/>
<path d="M86.7399 368.157C86.7399 368.157 84.9114 394.474 89.9749 397.711C93.2099 399.681 106.009 406.296 105.728 407.563C105.306 408.829 98.4141 418.68 98.4141 418.68C98.4141 418.68 73.7998 402.496 72.9558 397.289C72.1119 392.223 74.2217 358.728 77.5974 357.18C80.1292 356.054 81.5357 357.039 84.6301 359.291C89.131 362.668 86.7399 368.157 86.7399 368.157Z" fill="#FFB555"/>
<path d="M117.121 520.431C117.121 520.431 116.418 525.779 116.277 526.623C116.136 527.468 107.697 526.201 107.697 526.201L106.994 519.868C106.994 519.727 115.996 519.586 117.121 520.431Z" fill="#424773"/>
<path d="M116.277 525.779C116.277 525.779 118.95 529.016 121.482 530.423C124.013 531.83 128.092 532.393 129.639 533.801C130.765 534.786 133.718 539.289 122.888 539.289C112.198 539.148 106.994 539.993 105.869 538.163C104.744 536.474 107.557 525.357 107.557 525.357C107.557 525.357 110.229 526.342 116.277 525.779Z" fill="#292C47"/>
<path d="M171.132 520.431C171.132 520.431 170.429 525.779 170.288 526.623C170.148 527.468 161.709 526.201 161.709 526.201L161.005 519.868C161.146 519.727 170.148 519.727 171.132 520.431Z" fill="#424773"/>
<path d="M170.429 525.92C170.429 525.92 173.101 529.156 175.633 530.564C178.165 531.971 187.729 533.097 189.276 534.504C190.402 535.489 192.23 539.711 177.039 539.43C166.35 539.148 161.146 540.134 160.02 538.304C158.895 536.615 161.708 525.497 161.708 525.497C161.708 525.497 164.099 526.482 170.429 525.92Z" fill="#292C47"/>
<path d="M89.8342 428.391C89.8342 428.391 120.497 433.598 127.389 434.724C134.281 435.85 171.835 445.138 176.617 447.953C180.415 450.205 174.648 504.669 173.382 525.497H158.614L157.488 463.152C139.766 463.574 127.107 458.93 114.167 460.901C101.227 462.871 90.3968 465.685 82.2389 454.567C82.2389 454.708 81.9576 430.783 89.8342 428.391Z" fill="#292C47"/>
<path d="M120.075 525.497L105.588 524.653L104.181 463.152C96.5859 463.293 93.9135 462.871 87.7248 462.167L76.0506 435.146C86.3183 437.117 118.95 445.42 123.31 448.094C127.248 450.205 121.482 504.809 120.075 525.497Z" fill="#292C47"/>
<path d="M104.041 313.271C104.041 313.271 115.293 310.175 119.513 318.9C123.873 327.626 121.904 344.232 116.137 345.78C110.511 347.329 102.353 345.499 99.9618 340.151C97.5707 334.663 95.7422 326.922 96.3048 321.996C97.0081 316.93 101.087 314.538 104.041 313.271Z" fill="#EEA886"/>
<path d="M113.323 344.091C113.323 344.091 113.182 350.706 113.886 352.113C114.589 353.521 98.2732 353.239 98.2732 353.239C98.2732 353.239 100.805 345.217 99.3984 338.462C97.8512 331.707 113.323 344.091 113.323 344.091Z" fill="#EEA886"/>
<path d="M98.4145 335.788C98.4145 335.788 99.2584 337.618 103.478 337.336C107.698 337.055 113.324 331.989 115.152 331.426C116.981 331.003 117.121 329.878 117.121 329.878L118.106 331.566L119.934 331.848C119.934 331.848 118.669 326.781 121.482 324.952C124.154 323.122 120.216 308.627 106.432 312.145C106.432 312.145 95.8828 314.115 95.7421 320.026C95.4608 325.937 96.4454 332.692 98.4145 335.788Z" fill="#3A3F47"/>
<path d="M114.731 351.973C114.731 351.973 114.731 349.299 113.465 349.017C112.199 348.736 100.525 347.188 99.118 347.751L98.4147 351.269C98.4147 351.269 101.368 353.098 114.731 351.973Z" fill="#E2D2CA"/>
<path d="M118.106 328.752C117.825 326.5 115.293 323.967 113.886 327.485C112.48 331.003 114.871 335.929 116.418 335.648C118.106 335.366 118.528 331.848 118.106 328.752Z" fill="#EEA886"/>
<path d="M100.665 314.819C100.665 314.819 87.0218 314.115 98.274 335.648L100.665 314.819Z" fill="#3A3F47"/>
<path d="M70.1431 532.815L71.1276 535.771L114.308 522.401L112.198 516.49L70.1431 532.815Z" fill="#918783"/>
<path d="M115.855 473.426H110.932V520.29H115.855V473.426Z" fill="#918783"/>
<path d="M127.671 470.893H98.8367V473.707H127.671V470.893Z" fill="#5E5854"/>
<path d="M156.785 532.815L155.801 535.771L112.761 522.401L114.589 516.209L156.785 532.815Z" fill="#918783"/>
<path d="M126.545 535.349V538.726L112.761 522.401L114.589 516.209L126.545 535.349Z" fill="#918783"/>
<path d="M160.865 536.897C160.865 539.148 159.036 540.978 156.786 540.978C154.535 540.978 152.707 539.148 152.707 536.897C152.707 534.645 154.535 532.815 156.786 532.815C159.036 532.815 160.865 534.645 160.865 536.897Z" fill="#BFB2AC"/>
<path d="M126.826 536.897C126.826 539.148 124.998 540.978 122.747 540.978C120.497 540.978 118.668 539.148 118.668 536.897C118.668 534.645 120.497 532.815 122.747 532.815C124.998 532.815 126.826 534.645 126.826 536.897Z" fill="#BFB2AC"/>
<path d="M74.222 536.897C74.222 539.148 72.3935 540.978 70.143 540.978C67.8926 540.978 66.0641 539.148 66.0641 536.897C66.0641 534.645 67.8926 532.815 70.143 532.815C72.3935 532.815 74.222 534.645 74.222 536.897Z" fill="#BFB2AC"/>
<path d="M142.58 470.893H84.4898C81.6767 470.893 79.2856 468.641 79.2856 465.685V465.545C79.2856 462.73 81.5361 460.338 84.4898 460.338H142.58C145.393 460.338 147.784 462.589 147.784 465.545V465.685C147.784 468.641 145.393 470.893 142.58 470.893Z" fill="#E2D2CA"/>
<path d="M269.308 416.429H265.37V536.756H269.308V416.429Z" fill="#706865"/>
<path d="M234.145 391.097H143.142C140.329 391.097 137.938 388.845 137.938 385.889V324.67C137.938 321.856 140.188 319.463 143.142 319.463H234.145C236.958 319.463 239.349 321.715 239.349 324.67V385.889C239.349 388.845 237.099 391.097 234.145 391.097Z" fill="#B8ABA5"/>
<path d="M235.411 323.544H142.017V379.979H235.411V323.544Z" fill="#F5F7FF"/>
<path d="M231.191 385.186C231.191 386.734 229.503 388.141 227.394 388.141C225.284 388.141 223.596 386.875 223.596 385.186C223.596 383.638 225.284 382.23 227.394 382.23C229.503 382.371 231.191 383.638 231.191 385.186Z" fill="#918681"/>
<path d="M209.671 409.674V408.407C209.671 408.407 207.843 400.526 195.184 400.526C182.525 400.526 182.807 409.674 182.807 409.674H209.671Z" fill="#998E89"/>
<path d="M182.666 401.652C182.666 401.652 185.479 401.37 186.464 400.807C187.448 400.244 193.496 396.163 194.903 396.867C196.309 397.57 205.733 400.385 205.452 401.792C205.171 403.2 204.186 403.059 203.623 402.778C202.92 402.496 196.169 401.089 195.465 401.37C195.465 401.37 202.217 403.763 202.217 405.592C202.217 407.422 200.81 407.844 200.107 408.548C199.404 409.251 198.7 410.94 197.013 411.081C195.325 411.222 186.886 408.266 185.057 408.125C183.369 407.985 180.134 408.266 179.853 407.985C179.712 407.562 182.666 401.652 182.666 401.652Z" fill="#EEA886"/>
<path d="M132.734 355.632C124.013 354.084 114.73 351.832 114.73 351.832L98.4144 351.269C98.4144 351.269 83.5052 354.506 77.5977 357.18C77.0351 357.461 77.0351 370.549 75.4879 373.927L80.4108 384.201C80.4108 384.201 83.2239 404.607 83.7865 413.755C84.0678 417.977 83.0832 454.145 83.0832 454.145C83.0832 454.145 84.4898 454.849 95.742 456.116C106.854 457.382 134.703 455.693 134.844 454.427C134.984 453.16 129.499 405.451 129.218 402.918C128.796 399.118 130.343 381.667 130.343 381.667C132.453 384.482 137.797 397.148 143.424 403.34C146.659 406.859 162.974 409.11 165.928 409.251C172.539 409.533 184.776 410.799 185.057 410.096C185.338 409.673 186.182 399.259 185.338 399.118C184.635 398.837 162.13 397.57 156.364 394.474C154.254 393.348 147.924 379.556 147.924 379.556C147.924 379.556 137.516 357.883 132.734 355.632Z" fill="#FFB555"/>
<path d="M100.524 453.16H73.2373C67.7519 453.16 63.3916 448.657 63.3916 443.309V397.711C63.3916 392.222 67.8925 387.86 73.2373 387.86H100.665C106.15 387.86 110.51 392.363 110.51 397.711V443.309C110.51 448.657 106.01 453.16 100.524 453.16Z" fill="#E2D2CA"/>
<path d="M102.071 468.359C95.1795 468.359 89.4127 465.967 85.3337 461.463C75.91 451.049 77.5978 432.754 77.7385 431.909C77.8791 430.502 79.145 429.376 80.5515 429.517C81.9581 429.658 83.0833 430.924 82.9426 432.332C82.9426 432.472 81.3954 449.22 89.272 457.804C92.5071 461.323 96.7267 463.012 102.212 463.012C103.619 463.012 104.885 464.137 104.885 465.685C104.744 467.093 103.619 468.359 102.071 468.359Z" fill="#E2D2CA"/>
<path d="M175.352 331.003H149.472C149.05 331.003 148.768 330.722 148.768 330.3V328.752C148.768 328.329 149.05 328.048 149.472 328.048H175.352C175.774 328.048 176.055 328.329 176.055 328.752V330.3C176.055 330.581 175.633 331.003 175.352 331.003Z" fill="#DFE1E8"/>
<path d="M175.352 337.336H149.472C149.05 337.336 148.768 337.055 148.768 336.633V335.085C148.768 334.662 149.05 334.381 149.472 334.381H175.352C175.774 334.381 176.055 334.662 176.055 335.085V336.633C176.055 337.055 175.633 337.336 175.352 337.336Z" fill="#DFE1E8"/>
<path d="M173.523 375.475H151.159C149.753 375.475 148.628 374.349 148.628 372.942V344.232C148.628 342.825 149.753 341.699 151.159 341.699H173.523C174.93 341.699 176.055 342.825 176.055 344.232V372.942C176.055 374.349 174.93 375.475 173.523 375.475Z" fill="#DFE1E8"/>
<path d="M226.268 375.475H185.478C183.369 375.475 181.54 373.646 181.54 371.535V331.988C181.54 329.877 183.369 328.048 185.478 328.048H226.268C228.378 328.048 230.206 329.877 230.206 331.988V371.535C230.206 373.646 228.518 375.475 226.268 375.475Z" fill="#DFE1E8"/>
<path d="M541.895 321.011L515.171 335.788L488.306 293.428L520.797 282.169L541.895 321.011Z" fill="#292C47"/>
<path d="M540.207 319.745L515.171 333.537L489.994 293.99L520.375 283.435L540.207 319.745Z" fill="#E2D2CA"/>
<path d="M549.349 312.426C549.349 312.426 544.708 310.175 542.598 309.049C540.488 307.923 535.284 306.234 534.862 305.953C534.44 305.53 519.25 304.686 518.406 303.842C517.421 302.997 516.577 305.671 520.515 306.516C524.454 307.36 529.939 309.471 530.221 311.019C530.502 312.567 526.142 312.989 525.72 314.256C525.298 315.523 525.86 315.241 526.423 315.523C526.985 315.804 531.627 313.271 533.596 313.974C535.565 314.678 538.66 313.693 540.207 314.256C541.754 314.819 549.209 317.211 549.209 317.211L549.349 312.426Z" fill="#EEA886"/>
<path d="M513.765 330.44C513.765 330.44 509.826 326.922 507.998 325.515C506.169 324.107 502.512 319.745 502.09 319.463C501.528 319.182 494.776 305.249 493.651 304.686C492.526 304.123 494.636 302.294 497.027 305.671C499.418 309.049 503.497 313.412 505.044 312.989C506.591 312.708 505.325 308.486 506.31 307.501C507.295 306.656 507.295 307.219 507.717 307.782C508.279 308.205 507.576 313.552 509.123 315.1C510.53 316.649 510.811 320.026 511.936 321.152C513.061 322.419 518.266 328.47 518.266 328.47L513.765 330.44Z" fill="#EEA886"/>
<path d="M598.015 518.742C598.015 518.742 598.859 524.653 599 525.497C599.14 526.342 608.424 524.934 608.424 524.934L609.127 517.898C609.127 517.898 599.14 517.898 598.015 518.742Z" fill="#424773"/>
<path d="M598.86 524.653C598.86 524.653 595.906 528.171 593.093 529.719C590.28 531.267 585.779 531.83 584.091 533.519C582.825 534.645 579.59 539.571 591.546 539.571C603.361 539.43 609.127 540.274 610.393 538.304C611.659 536.334 608.565 524.231 608.565 524.231C608.565 524.231 605.611 525.356 598.86 524.653Z" fill="#292C47"/>
<path d="M531.346 518.742C531.346 518.742 532.19 524.653 532.33 525.497C532.471 526.342 541.754 524.934 541.754 524.934L542.457 517.898C542.457 517.898 532.471 517.898 531.346 518.742Z" fill="#424773"/>
<path d="M532.189 524.653C532.189 524.653 529.236 528.171 526.423 529.719C523.609 531.267 513.06 532.534 511.373 534.082C510.107 535.208 508.138 539.852 524.735 539.43C536.55 539.148 542.316 540.134 543.582 538.163C544.848 536.193 541.754 524.09 541.754 524.09C541.754 524.09 539.081 525.357 532.189 524.653Z" fill="#292C47"/>
<path d="M590.28 367.735C590.28 367.735 599 381.667 598.437 394.193C597.734 406.718 601.672 420.51 602.938 433.598C604.345 448.234 610.393 482.855 610.674 490.736C610.956 498.617 609.69 523.527 609.69 523.527L597.734 523.808C597.734 523.808 587.607 463.293 585.075 457.101C582.403 450.908 569.463 406.859 569.041 401.933C568.478 397.007 590.28 367.735 590.28 367.735Z" fill="#292C47"/>
<path d="M544.286 369.564C544.286 369.564 537.675 404.044 536.831 411.644C535.987 419.384 535.425 448.797 535.003 453.723C534.581 458.508 532.049 516.631 529.798 523.808H545.13C545.13 523.808 556.944 481.588 556.944 461.604C556.944 441.62 566.087 418.117 571.854 405.029C577.761 391.8 591.123 391.519 594.78 367.031C594.78 367.031 549.209 361.824 544.286 369.564Z" fill="#292C47"/>
<path d="M575.792 250.926C575.792 250.926 564.118 246.563 558.632 255.429C553.287 264.436 553.709 282.31 559.617 284.421C565.524 286.672 574.385 285.406 577.48 279.917C580.574 274.288 583.246 266.266 583.106 260.777C582.965 255.429 578.746 252.474 575.792 250.926Z" fill="#EEA886"/>
<path d="M560.883 284.843C560.883 284.843 561.305 288.08 560.602 289.628C559.758 291.176 575.792 291.176 575.792 291.176C575.792 291.176 577.058 282.732 579.59 275.554C581.981 268.377 560.883 284.843 560.883 284.843Z" fill="#EEA886"/>
<path d="M579.59 275.554C579.59 275.554 578.465 277.384 573.964 276.68C569.463 275.976 563.977 269.925 562.008 269.362C560.18 268.658 560.039 267.532 560.039 267.532L558.914 269.221L556.945 269.362C556.945 269.362 558.773 264.014 555.96 261.762C553.147 259.511 558.773 244.311 573.26 249.378C573.26 249.378 584.372 252.474 583.95 258.807C583.669 265.14 581.981 272.458 579.59 275.554Z" fill="#3A3F47"/>
<path d="M559.617 289.487C559.617 289.487 559.617 286.532 561.024 286.25C562.43 285.969 575.933 284.702 577.621 285.265V288.783C577.621 288.643 574.386 290.613 559.617 289.487Z" fill="#E2D2CA"/>
<path d="M560.461 265.281C560.742 264.155 563.415 261.199 564.399 264.436C565.384 267.673 562.852 272.036 561.445 271.614C559.898 271.192 559.758 267.955 560.461 265.281Z" fill="#EEA886"/>
<path d="M600.126 400.807C600.126 400.807 592.952 402.918 580.715 404.326C568.479 405.733 537.816 403.903 537.535 402.355C537.394 400.948 544.146 348.314 543.724 345.64C543.302 342.966 543.161 333.255 543.161 333.255C543.02 335.929 540.348 346.625 537.113 352.536C535.988 354.647 532.049 361.261 530.08 359.854C520.938 352.536 506.732 324.811 505.747 324.67C506.451 324.389 512.499 321.574 513.343 321.293C514.046 321.011 520.656 328.048 524.735 332.411C526.564 334.381 527.83 335.788 527.83 335.788C528.955 333.114 533.175 316.789 534.581 311.019C537.535 298.212 537.113 297.649 537.113 297.649C546.115 294.976 559.758 289.346 559.758 289.346L577.762 288.643C577.762 288.643 594.218 292.302 600.829 295.257C601.391 295.538 601.391 310.034 603.079 313.834L597.734 325.233C597.734 325.233 594.64 347.751 593.937 357.743C593.515 362.246 600.126 400.807 600.126 400.807Z" fill="#FF5A58"/>
<path d="M603.642 332.551C603.22 334.099 600.969 335.366 599.703 335.929C598.859 336.351 597.875 336.351 596.89 336.21L596.187 336.07L583.809 333.818C583.809 333.818 581.137 302.716 600.688 295.257C601.11 295.398 608.002 318.619 603.642 332.551Z" fill="#FF5A58"/>
<path d="M599.704 335.929C598.86 336.351 597.875 336.351 596.891 336.21L596.188 336.07L597.453 320.167L599.704 335.929Z" fill="#8A1A1A"/>
<path d="M527.83 335.788L526.283 342.121C526.283 342.121 524.595 335.788 524.736 332.411C526.564 334.381 527.83 335.788 527.83 335.788Z" fill="#8A1A1A"/>
<path d="M579.028 251.911C579.028 251.911 594.359 249.941 579.309 275.695L579.028 251.911Z" fill="#3A3F47"/>
<path d="M500.543 291.176L498.996 288.502L511.373 284.28L512.921 286.954L500.543 291.176Z" fill="#292C47"/>
<defs>
<linearGradient id="paint0_linear" x1="177.502" y1="191.228" x2="31.2937" y2="183.355" gradientUnits="userSpaceOnUse">
<stop stop-color="#40D5E6"/>
<stop offset="1" stop-color="#5577FF"/>
</linearGradient>
<linearGradient id="paint1_linear" x1="181.93" y1="256.681" x2="113.733" y2="179.514" gradientUnits="userSpaceOnUse">
<stop stop-color="#40D5E6"/>
<stop offset="1" stop-color="#5577FF"/>
</linearGradient>
<linearGradient id="paint2_linear" x1="165.887" y1="146.316" x2="96.6773" y2="142.589" gradientUnits="userSpaceOnUse">
<stop stop-color="#40D5E6"/>
<stop offset="1" stop-color="#5577FF"/>
</linearGradient>
<linearGradient id="paint3_linear" x1="162.795" y1="200.533" x2="113.045" y2="112.487" gradientUnits="userSpaceOnUse">
<stop stop-color="#40D5E6"/>
<stop offset="1" stop-color="#5577FF"/>
</linearGradient>
<linearGradient id="paint4_linear" x1="339.097" y1="353.113" x2="113.099" y2="353.113" gradientUnits="userSpaceOnUse">
<stop stop-color="#FFC05C"/>
<stop offset="1" stop-color="#FF3857"/>
</linearGradient>
<linearGradient id="paint5_linear" x1="339.097" y1="365.475" x2="113.099" y2="365.475" gradientUnits="userSpaceOnUse">
<stop stop-color="#FFC05C"/>
<stop offset="1" stop-color="#FF3857"/>
</linearGradient>
<linearGradient id="paint6_linear" x1="339.097" y1="377.837" x2="113.099" y2="377.837" gradientUnits="userSpaceOnUse">
<stop stop-color="#FFC05C"/>
<stop offset="1" stop-color="#FF3857"/>
</linearGradient>
<linearGradient id="paint7_linear" x1="219.841" y1="58.2335" x2="219.841" y2="185.411" gradientUnits="userSpaceOnUse">
<stop stop-color="#40D5E6"/>
<stop offset="1" stop-color="#5577FF"/>
</linearGradient>
<linearGradient id="paint8_linear" x1="219.738" y1="58.2275" x2="219.738" y2="185.415" gradientUnits="userSpaceOnUse">
<stop stop-color="#40D5E6"/>
<stop offset="1" stop-color="#5577FF"/>
</linearGradient>
<linearGradient id="paint9_linear" x1="219.738" y1="66.4566" x2="219.738" y2="177.831" gradientUnits="userSpaceOnUse">
<stop stop-color="#D3DAE0"/>
<stop offset="1" stop-color="white"/>
</linearGradient>
<linearGradient id="paint10_linear" x1="0.325746" y1="398.604" x2="82.4303" y2="398.604" gradientUnits="userSpaceOnUse">
<stop stop-color="#40D5E6"/>
<stop offset="1" stop-color="#5577FF"/>
</linearGradient>
<linearGradient id="paint11_linear" x1="60.5562" y1="444.446" x2="134.804" y2="444.446" gradientUnits="userSpaceOnUse">
<stop stop-color="#40D5E6"/>
<stop offset="1" stop-color="#5577FF"/>
</linearGradient>
<linearGradient id="paint12_linear" x1="66.9031" y1="455.249" x2="122.632" y2="455.249" gradientUnits="userSpaceOnUse">
<stop stop-color="#40D5E6"/>
<stop offset="1" stop-color="#5577FF"/>
</linearGradient>
<linearGradient id="paint13_linear" x1="46.7789" y1="410.377" x2="111.68" y2="410.377" gradientUnits="userSpaceOnUse">
<stop stop-color="#40D5E6"/>
<stop offset="1" stop-color="#5577FF"/>
</linearGradient>
<linearGradient id="paint14_linear" x1="31.885" y1="503.523" x2="91.7746" y2="503.523" gradientUnits="userSpaceOnUse">
<stop stop-color="#FF9340"/>
<stop offset="1" stop-color="#FFCE45"/>
</linearGradient>
<linearGradient id="paint15_linear" x1="31.885" y1="503.523" x2="91.7746" y2="503.523" gradientUnits="userSpaceOnUse">
<stop stop-color="#C97332"/>
<stop offset="1" stop-color="#FFCE45"/>
</linearGradient>
</defs>
</svg>
